<svg viewBox="0 0 202 202" fill="none" xmlns="http://www.w3.org/2000/svg"><path d="m0.75,50.75c0,-27.16895 22.83105,-50 50,-50l100,0c27.16895,0 50,22.83105 50,50l0,100c0,27.16895 -22.83105,50 -50,50l-100,0c-27.16895,0 -50,-22.83105 -50,-50l0,-100z" stroke-linecap="null" stroke-linejoin="null" stroke-width="1.5" stroke="#444444" fill="#444444"/><path d="m129.25,10.197917c-40,79 -73,99 -36,97c37,-2 29,50 30,50" opacity="0.5" stroke-width="1.5" stroke="#444444" fill="#444444"/><path stroke="#ffffff" d="m141.25,5.197914c0,0 -1.06601,0.85065 -3,1.938462c-3.118484,1.754039 -7.801346,4.288664 -16,7.753846c-7.831757,3.310109 -14.667679,6.978666 -22,13.569231c-7.794357,7.005871 -12.725067,13.049306 -17,19.384623c-6.119537,9.068969 -9.62262,21.196732 -11,29.076923c-1.84494,10.5551 -1.57579,19.269732 4,27.138462c4.803833,6.779306 14.83078,13.086124 26,13.569231c11.034378,0.47728 22.324768,-3.19138 36,-9.692308c9.243652,-4.394238 20.935287,-12.497022 26,-23.261539c3.421494,-7.272026 3.33931,-13.114579 0,-19.384615c-2.937042,-5.514718 -7.886185,-8.454888 -12,-8.723077c-9.034973,-0.589013 -19.154282,2.119157 -31,10.661538c-14.749969,10.636766 -25.2948,24.985274 -35,37.8c-14.446121,19.074647 -27.743423,39.401502 -34,53.307678c-6.830383,15.181559 -9,24.230769 -10,31.984615l0,2.907692l2,0.969231" stroke-width="10" fill="none"/></svg>