<svg width="500" height="500" xmlns="http://www.w3.org/2000/svg">
 <!-- Created with Method Draw - http://github.com/duopixel/Method-Draw/ -->

 <g>
  <title>background</title>
  <rect fill="none" id="canvas_background" height="502" width="502" y="-1" x="-1"/>
 </g>
 <g>
  <title>Layer 1</title>
  <text stroke="null" transform="matrix(1.4765957593917847,0,0,1.7329516410827637,-57.1095762308687,-66.08017139136791) " font-weight="normal" font-style="normal" xml:space="preserve" text-anchor="start" font-family="Verdana" font-size="24" id="svg_2" y="104.26717" x="153.684898" stroke-width="0" fill="#645A73">Welcome</text>
  <line stroke="#645A73" stroke-linecap="null" stroke-linejoin="null" id="svg_8" y2="134.5" x2="466.500648" y1="135.5" x1="165.500648" stroke-width="3" fill="none"/>
  <text stroke="#645A73" transform="matrix(0.5393109661024068,0,0,0.5067004587870715,118.13425987322756,79.53328229827207) " xml:space="preserve" text-anchor="start" font-family="Arvo, sans-serif" font-size="24" id="svg_14" y="156.499351" x="96.498941" stroke-width="0" fill="#645A73">created by Nianze A. TAO</text>
  <text stroke="#645A73" transform="matrix(0.41365491411005106,0,0,0.35097602791724236,26.162607567742405,90.2743522563712) " xml:space="preserve" text-anchor="start" font-family="Arvo, sans-serif" font-size="24" id="svg_17" y="251.801615" x="350.985985" stroke-width="0" fill="#8391AE">MIT License</text>
  <g stroke="null" id="svg_24">
   <path stroke="#444444" id="svg_21" fill="#444444" stroke-width="1.5" stroke-linejoin="null" stroke-linecap="null" d="m76.924095,101.711615c0,-10.208723 8.692915,-18.787482 19.037483,-18.787482l38.074966,0c10.344569,0 19.037483,8.578759 19.037483,18.787482l0,37.574963c0,10.208723 -8.692915,18.787482 -19.037483,18.787482l-38.074966,0c-10.344569,0 -19.037483,-8.578759 -19.037483,-18.787482l0,-37.574963z"/>
   <path stroke="#444444" id="svg_22" fill="#444444" stroke-width="1.5" opacity="0.5" d="m125.850427,86.474184c-15.229987,29.684221 -27.794725,37.199214 -13.706988,36.447715c14.087738,-0.751499 11.04174,18.787482 11.42249,18.787482"/>
   <path stroke="#ffffff" id="svg_23" fill="none" stroke-width="5" d="m130.419423,84.595435c0,0 -0.405883,0.319631 -1.142249,0.728376c-1.187362,0.65908 -2.97036,1.611464 -6.091995,2.913505c-2.981939,1.243772 -5.584714,2.622231 -8.376493,5.098634c-2.967699,2.632453 -4.845065,4.903272 -6.472744,7.283765c-2.330012,3.407662 -3.663809,7.964664 -4.188246,10.925643c-0.70246,3.966075 -0.599982,7.240595 1.522999,10.197267c1.829058,2.547322 5.646814,4.917106 9.899491,5.098634c4.201336,0.179338 8.500148,-1.19916 13.706988,-3.641881c3.519517,-1.651133 7.971103,-4.695751 9.899491,-8.740515c1.302733,-2.732461 1.271441,-4.927798 0,-7.283762c-1.118278,-2.072153 -3.002662,-3.176921 -4.568996,-3.277693c-3.440063,-0.221321 -7.292986,0.796272 -11.80324,4.006069c-5.616046,3.996761 -9.630987,9.388208 -13.326238,14.203336c-5.500356,7.167292 -10.563299,14.8051 -12.945489,20.030341c-2.600666,5.704465 -3.426747,9.104703 -3.807497,12.018207l0,1.092564l0.761499,0.364188"/>
  </g>
 </g>
</svg>