<svg viewBox="0 0 24 24" xmlns="http://www.w3.org/2000/svg">
 <g>
  <rect fill="none" id="canvas_background" height="402" width="582" y="-1" x="-1"/>
 </g>
 <g>
  <g fill-rule="evenodd" fill="none" id="ðŸ”-Product-Icons">
   <g stroke="null" fill-rule="nonzero" fill="#ffffff" id="ic_fluent_dismiss_24_regular">
    <path stroke="null" id="ðŸŽ¨-Color" d="m7.217497,7.556289l0.045679,-0.050199c0.16749,-0.158901 0.429585,-0.173347 0.614277,-0.043337l0.052913,0.043337l4.069634,3.860733l4.069634,-3.860733c0.184239,-0.174791 0.482951,-0.174791 0.66719,0c0.184239,0.174791 0.184239,0.458184 0,0.632975l-4.069421,3.860935l4.069421,3.860935c0.167491,0.158901 0.182717,0.407555 0.045679,0.582776l-0.045679,0.050199c-0.167491,0.158901 -0.429585,0.173347 -0.614277,0.043337l-0.052913,-0.043337l-4.069634,-3.860733l-4.069634,3.860733c-0.184239,0.174791 -0.482951,0.174791 -0.66719,0c-0.184239,-0.174791 -0.184239,-0.458184 0,-0.632975l4.069421,-3.860935l-4.069421,-3.860935c-0.167491,-0.158901 -0.182717,-0.407555 -0.045679,-0.582776l0.045679,-0.050199l-0.045679,0.050199z"/>
   </g>
  </g>
 </g>
</svg>