<svg viewBox="0 0 240 240" xmlns="http://www.w3.org/2000/svg">
  <g stroke="null" fill-rule="evenodd" fill="none" id="ðŸ”-Product-Icons">
   <g stroke="null" fill-rule="nonzero" fill="#7e9aff" id="ic_fluent_edit_24_regular">
    <path stroke="null" id="ðŸŽ¨-Color" d="m218.104154,23.239251c15.247306,15.038514 15.247306,39.420866 0,54.45938l-130.583192,128.795024c-3.020853,2.979487 -6.777853,5.129921 -10.89949,6.238552l-55.815901,15.014085c-6.108698,1.643254 -11.713867,-3.885159 -10.047798,-9.910207l15.222538,-55.051575c1.124023,-4.065196 3.304314,-7.770749 6.325167,-10.750235l130.583192,-128.795024c15.247306,-15.038514 39.968178,-15.038514 55.215484,0zm-65.793435,33.262163l-108.432668,106.946963c-1.006951,0.993162 -1.733715,2.228346 -2.108389,3.583412l-11.454628,41.425054l42.000192,-11.297771c1.373879,-0.369544 2.626212,-1.086355 3.633163,-2.079517l108.428959,-106.950621l-32.066629,-31.627518zm22.150523,-21.848061l-10.585152,10.430301l32.066629,31.63828l10.588861,-10.437404c8.85602,-8.734748 8.85602,-22.896429 0,-31.631177c-8.85602,-8.734748 -23.214319,-8.734748 -32.070339,0z"/>
   </g>
  </g>
</svg>