<svg viewBox="0 0 240 240" xmlns="http://www.w3.org/2000/svg">
  <g fill-rule="evenodd" fill="none" id="ðŸ”-System-Icons">
   <g stroke="null" fill-rule="nonzero" fill="#80b9be" id="ic_fluent_document_catch_up_24_regular">
    <path stroke="null" id="ðŸŽ¨-Color" d="m122.933782,2l0.4922,0.027352l0,0l1.184133,0.137848c2.556111,0.177 5.076556,0.6608 7.418667,1.6284l1.001044,0.484803l0,0l2.131678,1.168023l0,0c0.328133,0.158238 0.656267,0.317066 0.957056,0.518374l1.333042,1.013325l0,0l1.702192,1.455117l0,0l0.297519,0.231669l0,0l69.581805,69.02029c4.458333,4.425 6.966889,10.4312 6.966889,16.6852l0,120.029602c0,13.0272 -10.652445,23.6 -23.777779,23.6l-142.666672,0c-13.125334,0 -23.777779,-10.5728 -23.777779,-23.6l0,-44.250001c0,-4.88756 3.99217,-8.85 8.916667,-8.85c4.924497,0 8.916667,3.96244 8.916667,8.85l0,44.250001c0,3.245 2.663111,5.9 5.944445,5.9l142.666672,0c3.281333,0 5.944445,-2.655 5.944445,-5.9l0,-118.000002l-53.500002,0c-13.125334,0 -23.777779,-10.5728 -23.777779,-23.6l0,-53.100001l-71.333336,0c-3.281333,0 -5.944445,2.655 -5.944445,5.9l0,61.950001c0,4.887678 -3.99217,8.85 -8.916667,8.85c-4.924497,0 -8.916667,-3.962322 -8.916667,-8.85l0,-61.950001c0,-13.0272 10.652445,-23.6 23.777779,-23.6l73.378225,0zm-47.949674,86.824165l0.666372,1.335996l28.690268,71.112701l16.961878,-24.77764c1.135222,-2.120967 3.071411,-3.661953 5.330158,-4.328688l1.281254,-0.279212l1.2626,-0.0885l23.77659,0c4.924378,0 8.916667,3.96244 8.916667,8.85c0,3.988872 -2.659806,7.364121 -6.317958,8.468966l-1.376531,0.299614l-1.222178,0.08142l-18.477712,0l-23.524545,36.506841c-3.053697,5.796313 -10.910767,6.223851 -14.764598,1.557954l-0.827562,-1.187434l-0.580891,-1.19298l-27.776963,-68.848281l-12.30821,27.86806c-1.146802,2.59718 -3.455149,4.45214 -6.164389,5.07164l-0.67945,0.12862l-1.322639,0.09676l-35.609601,0c-4.924497,0 -8.916667,-3.96244 -8.916667,-8.85c0,-3.988872 2.659711,-7.364121 6.318101,-8.468105l1.376151,-0.300475l1.222416,-0.08142l29.782619,0l18.507077,-41.902981c2.956648,-6.694494 12.17125,-7.034334 15.777745,-1.072856zm63.738119,-55.896365l0,39.872201c0,3.245 2.663111,5.9 5.944445,5.9l40.160668,0l-46.105113,-45.772201z"/>
   </g>
  </g>
</svg>