<svg viewBox="0 0 24 24" xmlns="http://www.w3.org/2000/svg">

 <g>
  <rect fill="none" id="canvas_background" height="402" width="582" y="-1" x="-1"/>
 </g>
 <g>
  <path stroke="null" id="svg_1" fill="#333" d="m8.701358,7.249956l6.597283,0c0.801596,0 1.451402,0.649817 1.451402,1.451402l0,6.597283c0,0.801596 -0.649806,1.451402 -1.451402,1.451402l-6.597283,0c-0.801586,0 -1.451402,-0.649806 -1.451402,-1.451402l0,-6.597283c0,-0.801586 0.649817,-1.451402 1.451402,-1.451402zm0,0.791674c-0.36436,0 -0.659728,0.295368 -0.659728,0.659728l0,6.597283c0,0.364381 0.295368,0.659728 0.659728,0.659728l6.597283,0c0.364381,0 0.659728,-0.295347 0.659728,-0.659728l0,-6.597283c0,-0.36436 -0.295347,-0.659728 -0.659728,-0.659728l-6.597283,0z"/>
 </g>
</svg>