<svg viewBox="0 0 240 240" xmlns="http://www.w3.org/2000/svg">
  <path stroke="null" fill="#a994ff" d="m44.374946,22.912465c-4.763409,0 -8.624989,3.786028 -8.624989,8.45624l0,174.762291c0,4.670099 3.86158,8.45624 8.624989,8.45624l43.461892,0c-1.232108,6.182075 0.0943,12.100316 3.121096,16.91248l-46.582988,0c-14.290341,0 -25.874966,-11.358421 -25.874966,-25.36872l0,-174.762291c0,-14.010749 11.584625,-25.36872 25.874966,-25.36872l69.986607,0c5.337143,0 10.455786,2.078769 14.230081,5.779107l68.01321,66.682751c3.774295,3.700338 5.894892,8.71906 5.894892,13.952007l0,3.786028l-1.497298,0c-1.271898,-0.062351 -2.546097,-0.062351 -3.817995,0l-63.684616,0c-12.702883,0 -22.99997,-10.095961 -22.99997,-22.549973l0,-50.737439l-66.124912,0zm83.37489,11.958927l0,38.778512c0,3.113475 2.574847,5.637493 5.749992,5.637493l39.551898,0l-45.30189,-44.416005z"/>
  <path stroke="null" fill="#7e9afe" d="m183.487423,118.499843l0.019756,0c5.499782,0.002904 10.998623,2.162605 15.194488,6.481038c8.397375,8.640738 8.397375,22.650234 0,31.290972l-55.528416,57.13768c-3.237213,3.331999 -7.293843,5.694988 -11.736192,6.837277l-17.222803,4.430726c-7.489525,1.927371 -14.274408,-5.054145 -12.401321,-12.760723l4.305936,-17.721935c1.110117,-4.571092 3.406553,-8.745287 6.644707,-12.076317l55.528416,-57.13768c4.195865,-4.318433 9.695647,-6.478134 15.195429,-6.481038z"/>
</svg>