<svg viewBox="0 0 240 240" xmlns="http://www.w3.org/2000/svg">
  <g fill-rule="evenodd" fill="none" id="ðŸ”-System-Icons">
   <g stroke="null" fill-rule="nonzero" fill="#57b399" id="ic_fluent_missing_metadata_24_regular">
    <path stroke="null" id="ðŸŽ¨-Color" d="m195.562398,8c13.447218,0 24.349138,10.745174 24.349138,24.000001l0,58.260908c0,9.19296 -3.704316,18.008961 -10.299144,24.510294l-0.283532,0.280533c-4.788664,-3.048533 -9.976654,-5.540267 -15.468737,-7.380267l4.272462,-4.213333c3.550645,-3.499733 5.546193,-8.247467 5.546193,-13.197227l0,-58.260908c0,-4.41824 -3.633974,-8 -8.116379,-8l-59.145681,0c-5.026744,0 -9.846792,1.969813 -13.399601,5.47552l-92.117011,90.906349c-7.253013,7.3056 -7.19793,19.021867 0.159297,26.260267l48.278606,47.514668c6.903143,6.778667 17.782446,7.239467 25.220297,1.390933c1.77911,5.1872 4.164244,10.100267 7.072072,14.657067c-13.603052,8.535467 -31.855816,6.9664 -43.75551,-4.718933l-48.283801,-47.521068c-13.748822,-13.524267 -13.766462,-35.475201 -0.040907,-49.024001l91.981738,-90.771843c6.596993,-6.510614 15.549901,-10.16896 24.88482,-10.16896l59.145681,0zm-29.76114,37.356588c8.964812,0 16.232759,7.163307 16.232759,15.999787c0,8.836374 -7.267947,15.99968 -16.232759,15.99968c-8.964812,0 -16.231677,-7.163307 -16.231677,-15.99968c0,-8.83648 7.266865,-15.999787 16.231677,-15.999787zm64.931036,127.97675c0,-32.401068 -26.647697,-58.666668 -59.520116,-58.666668c-32.872419,0 -59.520116,26.265601 -59.520116,58.666668c0,32.401068 26.647697,58.666668 59.520116,58.666668c32.872419,0 59.520116,-26.265601 59.520116,-58.666668zm-66.278355,32.048001c0,-3.678933 3.025786,-6.661334 6.758239,-6.661334c3.732452,0 6.758239,2.9824 6.758239,6.661334c0,3.678933 -3.025786,6.661334 -6.758239,6.661334c-3.732452,0 -6.758239,-2.9824 -6.758239,-6.661334zm-13.297876,-48.502401c-0.11904,-12.126934 8.715909,-20.845867 20.056115,-20.845867c11.158399,0 20.057197,9.021867 20.057197,20.794667c0,6.037334 -2.004205,9.742934 -7.173797,15.442134l-2.876445,3.098667l-1.091924,1.232c-2.676241,3.112533 -3.504112,4.929067 -3.504112,7.405867c0,2.945067 -2.421928,5.333333 -5.41092,5.333333c-2.98791,0 -5.41092,-2.388267 -5.41092,-5.333333c0,-6.1344 2.02152,-9.874134 7.262536,-15.6512l2.872116,-3.0944l1.071362,-1.207467c2.62646,-3.053867 3.440263,-4.833067 3.440263,-7.2256c0,-5.947734 -4.123121,-10.128 -9.235358,-10.128c-5.342742,0 -9.294878,3.9008 -9.235466,10.0768c0.029327,2.945067 -2.369875,5.355733 -5.358867,5.384533c-2.98791,0.027733 -5.433646,-2.337067 -5.461782,-5.282133z"/>
   </g>
  </g>
</svg>