<svg viewBox="0 0 24 24" xmlns="http://www.w3.org/2000/svg">
 <g>
  <rect fill="none" id="canvas_background" height="402" width="582" y="-1" x="-1"/>
 </g>
 <g>
  <path stroke="null" id="svg_1" fill="#333" d="m15.168738,15.000003l0.609373,0c0.605785,0 1.096871,-0.575658 1.096871,-1.285716l0,-5.142862c0,-0.867875 -0.600217,-1.57143 -1.34062,-1.57143l-5.849978,0c-0.605765,0 -1.096871,0.575635 -1.096871,1.285716l0,0.714286l-0.365624,0c-0.605765,0 -1.096871,0.575635 -1.096871,1.285716l0,5.428577c0,0.710058 0.491106,1.285716 1.096871,1.285716l5.849978,0c0.605785,0 1.096871,-0.575658 1.096871,-1.285716l0,-0.714286zm0.974996,-6.428578l0,5.142862c0,0.236686 -0.163697,0.428572 -0.365624,0.428572l-0.609373,0l0,-3.857147c0,-0.710081 -0.491086,-1.285716 -1.096871,-1.285716l-4.753107,0l0,-0.714286c0,-0.236692 0.163702,-0.428572 0.365624,-0.428572l5.849978,0c0.336549,0 0.609373,0.319795 0.609373,0.714286zm-1.706244,1.714287l0,5.428577c0,0.236686 -0.163697,0.428572 -0.365624,0.428572l-5.849978,0c-0.201922,0 -0.365624,-0.191886 -0.365624,-0.428572l0,-5.428577c0,-0.236692 0.163702,-0.428572 0.365624,-0.428572l5.849978,0c0.201927,0 0.365624,0.19188 0.365624,0.428572z"/>
 </g>
</svg>